<svg xmlns="http://www.w3.org/2000/svg" viewBox="0 0 55 55"><defs><style>.cls-1{fill:#fff;stroke:#fff;stroke-miterlimit:10;}.cls-2{fill:gray;}.cls-3{fill:#8cc63f;}</style></defs><title>myFavIcon</title><g id="Layer_1" data-name="Layer 1"><rect class="cls-1" x="0.5" y="0.5" width="54" height="54" rx="12" ry="12"/></g><g id="Layer_2" data-name="Layer 2"><path class="cls-2" d="M151.68,92.57,155,97.3h0l7.76-12.21h-.94V83.43H171V85.1h-.93a1,1,0,0,0-.89.51l-12.67,19.16h-1.72l-2.22-5.36a1,1,0,0,0-1.83,0l-2.22,5.36h-1.72L134.15,85.61a1,1,0,0,0-.89-.51h-.93V83.43h9.17V85.1h-.94l7.76,12.21" transform="translate(-124.18 -76.5)"/><path class="cls-3" d="M150.92,102.51l-5.08,22.36a.77.77,0,0,0,.76.88h10.16a.77.77,0,0,0,.76-.88l-5.08-22.36A.77.77,0,0,0,150.92,102.51Z" transform="translate(-124.18 -76.5)"/></g></svg>